<svg xmlns="http://www.w3.org/2000/svg" id="nym-logo_svg" width="92" height="24" viewBox="0 0 91.8 24"><defs></defs><path fill="white" d="m17.7 21.7-5.1-19C12.2 1.1 10.8 0 9.2 0H3.6C1.6 0 0 1.6 0 3.6V24h6V2.4c0-.3.4-.4.5 0l5.1 19c.4 1.6 1.8 2.7 3.5 2.7h5.6c2 0 3.6-1.6 3.6-3.6V0h-6v21.6c0 .3-.4.4-.5 0ZM85.9 0h-3.3c-1.6 0-3 1.1-3.4 2.7l-5 18.7c-.2.7-1.1.7-1.3 0l-5-18.7C67.4 1.1 66 0 64.4 0h-5.6c-2 0-3.6 1.6-3.6 3.6V24h6V2.4c0-.3.4-.4.5 0l5.1 19c.4 1.6 1.8 2.7 3.5 2.7h6.4c1.6 0 3-1.1 3.5-2.7l5.1-19c0-.3.5-.2.5 0V24h6V3.6c0-2-1.6-3.6-3.6-3.6zM47.7 0l-6.9 12c-.3.5-1.1.5-1.4 0L32.6 0h-6.4l7 12.1c.5.9 1.5 1.4 2.5 1.4H40l-6 10.4h6.3L54.1 0h-6.3Z"></path></svg>